. 
  
http://www.torrenting.com/        :     Greatest Movie Tracker on The Net!!!
 
http://www.Torrenting.com          :     Once & For all ;)


               www . Torrenting . Com 

(((((((((((((= Enjoy No RAR releases =))))))))))))))))))))


...................................NFO:....................................

.








































          
          
              
              
                    
                    
                    
                    

Never.Back.Down.2.The.Beatdown.2011.DVDRip.XviD.AC3-SiC

Poster:
[img]http://img98.imageshack.us/img98/7654/neverbackdown2thebeatdo.jpg[/img]

IMDB Link:
http://www.imdb.com/title/tt1754264/

Description:
Four fighters different backgrounds come together to train under an ex MMA rising star and then ultimately have to fight each other and the traitor in heir midst. 

General
Complete name                    : Never.Back.Down.2.The.Beatdown.2011.DVDRip.XviD.AC3-SiC.avi
Format                           : AVI
Format/Info                      : Audio Video Interleave
File size                        : 1.36 GiB
Duration                         : 1h 39mn
Overall bit rate                 : 1 966 Kbps
Writing library                  : VirtualDub build 32839/release

Video
ID                               : 0
Format                           : MPEG-4 Visual
Format profile                   : Advanced Simple@L5
Format settings, BVOP            : 2
Format settings, QPel            : No
Format settings, GMC             : No warppoints
Format settings, Matrix          : Default (MPEG)
Muxing mode                      : Packed bitstream
Codec ID                         : XVID
Codec ID/Hint                    : XviD
Duration                         : 1h 39mn
Bit rate                         : 1 577 Kbps
Width                            : 720 pixels
Height                           : 384 pixels
Display aspect ratio             : 1.875
Frame rate                       : 25.000 fps
Color space                      : YUV
Chroma subsampling               : 4:2:0
Bit depth                        : 8 bits
Scan type                        : Progressive
Compression mode                 : Lossy
Bits/(Pixel*Frame)               : 0.228
Stream size                      : 1.09 GiB (80%)
Writing library                  : XviD 64

Audio
ID                               : 1
Format                           : AC-3
Format/Info                      : Audio Coding 3
Mode extension                   : CM (complete main)
Codec ID                         : 2000
Duration                         : 1h 39mn
Bit rate mode                    : Constant
Bit rate                         : 384 Kbps
Channel(s)                       : 6 channels
Channel positions                : Front: L C R, Side: L R, LFE
Sampling rate                    : 48.0 KHz
Bit depth                        : 16 bits
Compression mode                 : Lossy
Delay relative to video          : 1s 0ms
Stream size                      : 273 MiB (20%)
Alignment                        : Split accross interleaves
Interleave, duration             : 5461 ms (136.51 video frames)


Screenshots:
[img]http://img6.imageshack.us/img6/6264/snap1cp.png[/img]
[img]http://img4.imageshack.us/img4/5185/snap2qh.png[/img]
[img]http://img828.imageshack.us/img828/6035/snap3q.png[/img]
[img]http://img819.imageshack.us/img819/4052/snap4t.png[/img]
[img]http://img194.imageshack.us/img194/6978/snap5y.png[/img]

Note :   resized, cropped sharpened you know did my thing

Source Film : YeFsTe thnx m8

Encoder: scumbag

Enjoy!

Respects to CaptainHomey, Cyanide, CM8, Rx, THC, ELEKTRI4KA, 
Killerhz, PA, YeFsTe, BoxSlots, MrRep and everyone in the struggle...